<svg width="38" height="29" viewBox="0 0 38 29" fill="none" xmlns="http://www.w3.org/2000/svg">
<path d="M37.1597 12.1565C39.0504 9.90566 37.1597 8.07113 37.1597 8.07113C37.1597 8.07113 35.227 6.57071 33.6724 8.07119L18.9251 22.5786L4.68196 8.32125C4.68196 8.32125 2.41313 6.40333 0.77454 8.32125C-0.864052 10.2392 0.606479 11.7816 0.606479 11.7816L17.0344 28.0396C17.0344 28.0396 17.9167 28.9501 18.9251 28.9984C19.9335 29.0467 20.8578 28.0396 20.8578 28.0396L37.1597 12.1565Z" fill="#636363"/>
<path d="M31.2883 3.25863C32.5996 1.71522 31.2883 0.457259 31.2883 0.457259C31.2883 0.457259 29.9479 -0.571602 28.8697 0.457301L18.6417 10.4053L8.76342 0.62877C8.76342 0.62877 7.18988 -0.686378 6.05344 0.62877C4.91699 1.94392 5.93688 3.00158 5.93688 3.00158L17.3304 14.1499C17.3304 14.1499 17.9424 14.7742 18.6417 14.8074C19.3411 14.8405 19.9821 14.1499 19.9821 14.1499L31.2883 3.25863Z" fill="#858585"/>
</svg>
