<svg width="1258" height="764" viewBox="0 0 1258 764" fill="none" xmlns="http://www.w3.org/2000/svg">
<path d="M0 205.562C0 191.032 2.25413 177.503 6.7624 164.976C11.2707 152.199 17.6574 141.175 25.9226 131.906C34.4381 122.636 44.707 115.37 56.7291 110.109C68.7511 104.848 82.2759 102.217 97.3035 102.217C115.838 102.217 133.37 105.6 149.9 112.364L140.132 149.568C134.872 147.313 128.861 145.434 122.099 143.931C115.587 142.428 108.574 141.676 101.06 141.676C83.2777 141.676 69.7529 147.313 60.486 158.587C51.219 169.611 46.5855 185.269 46.5855 205.562C46.5855 225.104 50.9684 240.637 59.7346 252.161C68.5007 263.435 83.2777 269.072 104.066 269.072C111.83 269.072 119.469 268.321 126.983 266.818C134.497 265.314 141.009 263.435 146.519 261.181L152.906 298.76C147.896 301.265 140.257 303.52 129.988 305.525C119.97 307.53 109.576 308.531 98.8063 308.531C82.0255 308.531 67.3737 306.027 54.8506 301.015C42.5782 295.754 32.3093 288.614 24.0441 279.595C16.0293 270.326 10.0183 259.427 6.01103 246.9C2.00374 234.123 0 220.344 0 205.562ZM361.766 205.186C361.766 220.72 359.512 234.875 355.004 247.652C350.495 260.429 344.109 271.327 335.844 280.346C327.578 289.365 317.559 296.38 305.788 301.391C294.266 306.402 281.493 308.907 267.468 308.907C253.442 308.907 240.668 306.402 229.148 301.391C217.625 296.38 207.734 289.365 199.468 280.346C191.203 271.327 184.691 260.429 179.931 247.652C175.424 234.875 173.17 220.72 173.17 205.186C173.17 189.653 175.424 175.624 179.931 163.097C184.691 150.32 191.203 139.422 199.468 130.402C207.983 121.383 218.001 114.493 229.524 109.733C241.044 104.723 253.692 102.217 267.468 102.217C281.243 102.217 293.89 104.723 305.413 109.733C317.183 114.493 327.203 121.383 335.468 130.402C343.733 139.422 350.12 150.32 354.628 163.097C359.386 175.624 361.766 189.653 361.766 205.186ZM315.181 205.186C315.181 185.645 310.922 170.237 302.407 158.963C294.142 147.439 282.496 141.676 267.468 141.676C252.441 141.676 240.668 147.439 232.153 158.963C223.888 170.237 219.756 185.645 219.756 205.186C219.756 224.978 223.888 240.637 232.153 252.161C240.668 263.685 252.441 269.448 267.468 269.448C282.496 269.448 294.142 263.685 302.407 252.161C310.922 240.637 315.181 224.978 315.181 205.186ZM520.553 200.301C520.553 179.758 517.923 164.976 512.664 155.957C507.654 146.688 498.136 142.052 484.111 142.052C479.101 142.052 473.592 142.428 467.581 143.18C461.57 143.931 457.062 144.557 454.056 145.059V303.646H408.598V113.491C417.363 110.986 428.759 108.606 442.785 106.351C457.062 104.096 472.089 102.969 487.868 102.969C501.393 102.969 512.412 104.723 520.929 108.23C529.694 111.738 536.958 116.372 542.719 122.135C545.473 120.13 548.98 118.001 553.238 115.746C557.495 113.491 562.255 111.487 567.514 109.733C572.774 107.729 578.283 106.101 584.045 104.848C590.056 103.595 596.067 102.969 602.078 102.969C617.355 102.969 629.879 105.224 639.647 109.733C649.664 113.993 657.428 120.13 662.939 128.148C668.699 135.914 672.581 145.434 674.586 156.708C676.84 167.732 677.967 179.882 677.967 193.161V303.646H632.508V200.301C632.508 179.758 630.003 164.976 624.995 155.957C619.985 146.688 610.343 142.052 596.067 142.052C588.803 142.052 581.914 143.305 575.404 145.81C568.891 148.065 564.007 150.32 560.752 152.575C562.754 158.837 564.133 165.478 564.884 172.492C565.636 179.506 566.012 187.022 566.012 195.04V303.646H520.553V200.301ZM911.358 205.186C911.358 220.72 909.104 234.875 904.596 247.652C900.087 260.429 893.701 271.327 885.436 280.346C877.17 289.365 867.151 296.38 855.38 301.391C843.858 306.402 831.085 308.907 817.06 308.907C803.034 308.907 790.26 306.402 778.74 301.391C767.217 296.38 757.326 289.365 749.06 280.346C740.795 271.327 734.283 260.429 729.525 247.652C725.016 234.875 722.762 220.72 722.762 205.186C722.762 189.653 725.016 175.624 729.525 163.097C734.283 150.32 740.795 139.422 749.06 130.402C757.575 121.383 767.593 114.493 779.116 109.733C790.636 104.723 803.284 102.217 817.06 102.217C830.835 102.217 843.482 104.723 855.005 109.733C866.775 114.493 876.795 121.383 885.06 130.402C893.325 139.422 899.712 150.32 904.22 163.097C908.978 175.624 911.358 189.653 911.358 205.186ZM864.773 205.186C864.773 185.645 860.514 170.237 851.999 158.963C843.734 147.439 832.088 141.676 817.06 141.676C802.033 141.676 790.26 147.439 781.745 158.963C773.48 170.237 769.348 185.645 769.348 205.186C769.348 224.978 773.48 240.637 781.745 252.161C790.26 263.685 802.033 269.448 817.06 269.448C832.088 269.448 843.734 263.685 851.999 252.161C860.514 240.637 864.773 224.978 864.773 205.186ZM1034.98 206.314C1034.98 189.027 1037.48 173.869 1042.49 160.842C1047.75 147.815 1054.64 137.041 1063.16 128.523C1071.67 119.755 1081.44 113.241 1092.46 108.982C1103.48 104.472 1114.75 102.217 1126.27 102.217C1153.32 102.217 1174.36 110.61 1189.39 127.396C1204.67 144.181 1212.31 169.236 1212.31 202.556C1212.31 205.061 1212.18 207.943 1211.93 211.199C1211.93 214.206 1211.8 216.962 1211.55 219.467H1081.94C1083.19 235.25 1088.7 247.526 1098.47 256.295C1108.49 264.813 1122.89 269.072 1141.68 269.072C1152.7 269.072 1162.72 268.071 1171.73 266.066C1181 264.061 1188.26 261.932 1193.52 259.677L1199.53 296.881C1197.03 298.135 1193.52 299.512 1189.01 301.015C1184.75 302.269 1179.75 303.396 1173.99 304.397C1168.47 305.651 1162.46 306.652 1155.95 307.404C1149.44 308.155 1142.8 308.531 1136.04 308.531C1118.76 308.531 1103.73 306.027 1090.96 301.015C1078.18 295.754 1067.67 288.614 1059.4 279.595C1051.14 270.326 1045 259.551 1040.99 247.276C1036.98 234.749 1034.98 221.096 1034.98 206.314ZM1166.85 186.021C1166.85 179.758 1165.97 173.869 1164.22 168.358C1162.46 162.595 1159.83 157.71 1156.33 153.702C1153.07 149.442 1148.94 146.186 1143.93 143.931C1139.17 141.426 1133.41 140.173 1126.65 140.173C1119.63 140.173 1113.5 141.551 1108.24 144.307C1102.98 146.812 1098.47 150.194 1094.72 154.454C1091.21 158.713 1088.45 163.599 1086.45 169.11C1084.45 174.621 1083.07 180.258 1082.32 186.021H1166.85ZM1174.74 26.6817L1113.5 86.058L1090.96 65.7649L1146.18 0L1174.74 26.6817ZM46.5855 597.145C46.5855 616.185 50.3424 631.343 57.8561 642.617C65.6203 653.891 77.7677 659.528 94.298 659.528C101.812 659.528 108.825 658.4 115.337 656.146C122.099 653.641 127.484 651.01 131.491 648.254V535.89C128.235 535.138 124.103 534.513 119.093 534.011C114.335 533.259 108.073 532.883 100.309 532.883C83.5283 532.883 70.3792 538.646 60.8617 550.17C51.3441 561.444 46.5855 577.102 46.5855 597.145ZM0 596.393C0 580.86 2.25413 566.831 6.7624 554.304C11.5211 541.527 18.1584 530.755 26.6739 521.985C35.4401 512.966 45.9594 506.076 58.2318 501.316C70.5043 496.305 84.4048 493.8 99.9333 493.8C115.462 493.8 129.988 494.928 143.513 497.182C157.038 499.437 168.183 501.818 176.95 504.323V764H131.491V687.713C126.232 690.469 119.72 692.974 111.955 695.229C104.442 697.483 96.0511 698.611 86.7842 698.611C72.7584 698.611 60.3607 696.23 49.591 691.471C38.8213 686.459 29.8047 679.445 22.5414 670.426C15.278 661.407 9.64263 650.634 5.63534 638.107C1.87845 625.58 0 611.675 0 596.393ZM395.866 688.464C387.099 690.719 375.702 692.974 361.678 695.229C347.652 697.733 332.248 698.987 315.468 698.987C299.689 698.987 286.414 696.732 275.645 692.222C265.126 687.713 256.609 681.45 250.098 673.432C243.835 665.415 239.327 655.896 236.573 644.872C233.818 633.598 232.441 621.322 232.441 608.043V497.934H277.899V600.903C277.899 621.948 280.905 636.98 286.916 645.999C293.177 655.018 303.946 659.528 319.225 659.528C324.734 659.528 330.496 659.278 336.507 658.776C342.768 658.274 347.402 657.649 350.407 656.897V497.934H395.866V688.464ZM442.829 597.145C442.829 579.858 445.334 564.7 450.342 551.673C455.602 538.646 462.49 527.872 471.005 519.355C479.522 510.585 489.29 504.073 500.309 499.813C511.33 495.303 522.601 493.049 534.121 493.049C561.171 493.049 582.209 501.442 597.237 518.227C612.516 535.012 620.154 560.067 620.154 593.387C620.154 595.892 620.03 598.774 619.778 602.03C619.778 605.037 619.654 607.793 619.403 610.298H489.79C491.043 626.082 496.552 638.357 506.32 647.126C516.34 655.644 530.74 659.904 549.524 659.904C560.545 659.904 570.563 658.902 579.58 656.897C588.848 654.892 596.11 652.763 601.369 650.509L607.38 687.713C604.877 688.966 601.37 690.343 596.861 691.847C592.605 693.1 587.595 694.227 581.834 695.229C576.324 696.482 570.313 697.484 563.801 698.235C557.29 698.987 550.651 699.363 543.889 699.363C526.607 699.363 511.58 696.858 498.806 691.847C486.033 686.585 475.514 679.445 467.248 670.426C458.983 661.157 452.848 650.383 448.84 638.107C444.833 625.58 442.829 611.927 442.829 597.145ZM574.696 576.852C574.696 570.589 573.82 564.7 572.066 559.189C570.313 553.426 567.683 548.541 564.176 544.533C560.921 540.274 556.788 537.017 551.779 534.762C547.02 532.258 541.259 531.004 534.497 531.004C527.485 531.004 521.348 532.382 516.088 535.138C510.828 537.643 506.32 541.025 502.563 545.285C499.058 549.544 496.302 554.43 494.298 559.941C492.296 565.452 490.917 571.089 490.165 576.852H574.696ZM745.142 597.145C745.142 579.858 747.646 564.7 752.656 551.673C757.915 538.646 764.802 527.872 773.319 519.355C781.834 510.585 791.602 504.073 802.622 499.813C813.641 495.303 824.912 493.049 836.434 493.049C863.484 493.049 884.523 501.442 899.55 518.227C914.828 535.012 922.467 560.067 922.467 593.387C922.467 595.892 922.341 598.774 922.092 602.03C922.092 605.037 921.966 607.793 921.716 610.298H792.103C793.354 626.082 798.866 638.357 808.633 647.126C818.651 655.644 833.053 659.904 851.838 659.904C862.857 659.904 872.876 658.902 881.893 656.897C891.159 654.892 898.423 652.763 903.683 650.509L909.694 687.713C907.188 688.966 903.683 690.343 899.175 691.847C894.916 693.1 889.906 694.227 884.147 695.229C878.636 696.482 872.625 697.484 866.114 698.235C859.601 698.987 852.965 699.363 846.202 699.363C828.921 699.363 813.893 696.858 801.12 691.847C788.346 686.585 777.827 679.445 769.562 670.426C761.297 661.157 755.16 650.383 751.153 638.107C747.144 625.58 745.142 611.927 745.142 597.145ZM877.009 576.852C877.009 570.589 876.132 564.7 874.379 559.189C872.625 553.426 869.995 548.541 866.49 544.533C863.232 540.274 859.1 537.017 854.092 534.762C849.332 532.258 843.573 531.004 836.81 531.004C829.796 531.004 823.661 532.382 818.401 535.138C813.142 537.643 808.633 541.025 804.877 545.285C801.369 549.544 798.614 554.43 796.611 559.941C794.607 565.452 793.23 571.089 792.479 576.852H877.009ZM884.898 417.513L823.661 476.889L801.12 456.596L856.346 390.831L884.898 417.513Z" fill="#3A3A3A"/>
<path d="M1139.92 421.082C1128.65 421.082 1118 422.491 1107.98 425.31C1097.97 428.128 1086.85 432.67 1074.64 438.932L1054.92 385.851C1067.13 378.021 1081.53 372.072 1098.12 368C1114.72 363.617 1131 361.424 1146.96 361.424C1167 361.424 1183.44 364.086 1196.27 369.41C1209.42 374.733 1219.75 381.467 1227.27 389.609C1234.78 397.75 1239.94 406.676 1242.76 416.384C1245.89 426.093 1247.46 435.33 1247.46 444.1C1247.46 452.869 1246.05 461.011 1243.23 468.527C1240.73 475.729 1237.44 482.463 1233.37 488.726C1229.3 494.989 1224.61 500.939 1219.28 506.576C1213.96 512.213 1208.79 517.536 1203.78 522.548C1200.03 526.306 1196.12 530.378 1192.04 534.761C1187.98 538.833 1184.22 543.217 1180.77 547.914C1177.64 552.612 1174.98 557.623 1172.79 562.946C1170.6 567.957 1169.5 573.125 1169.5 578.448C1169.5 579.701 1169.5 581.58 1169.5 584.085C1169.5 586.59 1169.66 588.782 1169.97 590.661H1107.98C1107.36 587.529 1106.89 584.085 1106.58 580.327C1106.58 576.255 1106.58 572.811 1106.58 569.992C1106.58 561.223 1107.67 553.395 1109.86 546.505C1112.05 539.303 1114.87 532.726 1118.32 526.776C1122.07 520.513 1126.3 514.718 1131 509.395C1135.69 504.072 1140.55 498.904 1145.55 493.893C1152.75 486.691 1159.33 479.645 1165.28 472.754C1171.23 465.552 1174.2 457.409 1174.2 448.327C1174.2 440.811 1171.23 434.391 1165.28 429.068C1159.64 423.745 1151.19 421.082 1139.92 421.082ZM1183.59 657.366C1183.59 671.144 1179.05 681.793 1169.97 689.309C1161.21 696.825 1151.19 700.583 1139.92 700.583C1128.65 700.583 1118.47 696.825 1109.39 689.309C1100.63 681.793 1096.24 671.144 1096.24 657.366C1096.24 643.587 1100.63 632.939 1109.39 625.423C1118.47 617.907 1128.65 614.149 1139.92 614.149C1151.19 614.149 1161.21 617.907 1169.97 625.423C1179.05 632.939 1183.59 643.587 1183.59 657.366Z" fill="#048CB4"/>
<g filter="url(#filter0_d)">
<path d="M1204.84 373.168C1232.07 383.502 1260.25 425.78 1242.4 470.876L1204.84 373.168Z" fill="#FD8F26"/>
</g>
<defs>
<filter id="filter0_d" x="1194.84" y="367.168" width="63.1648" height="117.708" filterUnits="userSpaceOnUse" color-interpolation-filters="sRGB">
<feFlood flood-opacity="0" result="BackgroundImageFix"/>
<feColorMatrix in="SourceAlpha" type="matrix" values="0 0 0 0 0 0 0 0 0 0 0 0 0 0 0 0 0 0 127 0"/>
<feOffset dy="4"/>
<feGaussianBlur stdDeviation="5"/>
<feColorMatrix type="matrix" values="0 0 0 0 0 0 0 0 0 0 0 0 0 0 0 0 0 0 0.15 0"/>
<feBlend mode="normal" in2="BackgroundImageFix" result="effect1_dropShadow"/>
<feBlend mode="normal" in="SourceGraphic" in2="effect1_dropShadow" result="shape"/>
</filter>
</defs>
</svg>
