<svg width="865" height="1502" viewBox="0 0 865 1502" fill="none" xmlns="http://www.w3.org/2000/svg">
<g filter="url(#filter0_d)">
<path d="M381.641 266.684C332.363 266.684 285.823 272.842 242.019 285.158C198.219 297.474 149.622 317.314 96.2372 344.684L10 112.737C63.3849 78.5265 126.354 52.5262 198.9 34.7368C271.451 15.5788 342.629 6 412.44 6C500.049 6 571.913 17.6314 628.033 40.8947C685.525 64.158 730.696 93.5788 763.549 129.158C796.401 164.737 818.987 203.738 831.307 246.158C844.998 288.578 851.839 328.949 851.839 367.263C851.839 405.578 845.679 441.158 833.36 474C822.412 505.475 808.039 534.893 790.241 562.263C772.448 589.633 751.915 615.632 728.643 640.263C705.376 664.895 682.79 688.159 660.885 710.053C644.459 726.474 627.351 744.262 609.554 763.421C591.76 781.209 575.334 800.368 560.275 820.895C546.588 841.421 534.954 863.314 525.37 886.579C515.789 908.472 510.997 931.051 510.997 954.316C510.997 959.788 510.997 967.999 510.997 978.947C510.997 989.896 511.683 999.474 513.05 1007.68H242.019C239.284 994.001 237.231 978.947 235.859 962.526C235.859 944.738 235.859 929.684 235.859 917.368C235.859 879.054 240.652 844.841 250.232 814.737C259.817 783.262 272.136 754.525 287.191 728.526C303.617 701.157 322.096 675.843 342.629 652.579C363.162 629.314 384.38 606.735 406.28 584.842C437.765 553.367 466.511 522.578 492.518 492.474C518.528 460.999 531.53 425.422 531.53 385.737C531.53 352.895 518.528 324.843 492.518 301.579C467.878 278.314 430.92 266.684 381.641 266.684ZM572.595 1299.16C572.595 1359.37 552.748 1405.89 513.05 1438.74C474.724 1471.58 430.92 1488 381.641 1488C332.363 1488 287.877 1471.58 248.179 1438.74C209.853 1405.89 190.687 1359.37 190.687 1299.16C190.687 1238.95 209.853 1192.42 248.179 1159.58C287.877 1126.74 332.363 1110.32 381.641 1110.32C430.92 1110.32 474.724 1126.74 513.05 1159.58C552.748 1192.42 572.595 1238.95 572.595 1299.16Z" fill="#048CB4"/>
<g filter="url(#filter1_d)">
<path d="M657.886 53.2109C782.269 100.106 910.934 291.948 829.444 496.579L657.886 53.2109Z" fill="#FD8F26"/>
</g>
</g>
<defs>
<filter id="filter0_d" x="0" y="0" width="864.998" height="1502" filterUnits="userSpaceOnUse" color-interpolation-filters="sRGB">
<feFlood flood-opacity="0" result="BackgroundImageFix"/>
<feColorMatrix in="SourceAlpha" type="matrix" values="0 0 0 0 0 0 0 0 0 0 0 0 0 0 0 0 0 0 127 0"/>
<feOffset dy="4"/>
<feGaussianBlur stdDeviation="5"/>
<feColorMatrix type="matrix" values="0 0 0 0 0 0 0 0 0 0 0 0 0 0 0 0 0 0 0.25 0"/>
<feBlend mode="normal" in2="BackgroundImageFix" result="effect1_dropShadow"/>
<feBlend mode="normal" in="SourceGraphic" in2="effect1_dropShadow" result="shape"/>
</filter>
<filter id="filter1_d" x="647.886" y="47.2109" width="217.112" height="463.368" filterUnits="userSpaceOnUse" color-interpolation-filters="sRGB">
<feFlood flood-opacity="0" result="BackgroundImageFix"/>
<feColorMatrix in="SourceAlpha" type="matrix" values="0 0 0 0 0 0 0 0 0 0 0 0 0 0 0 0 0 0 127 0"/>
<feOffset dy="4"/>
<feGaussianBlur stdDeviation="5"/>
<feColorMatrix type="matrix" values="0 0 0 0 0 0 0 0 0 0 0 0 0 0 0 0 0 0 0.15 0"/>
<feBlend mode="normal" in2="BackgroundImageFix" result="effect1_dropShadow"/>
<feBlend mode="normal" in="SourceGraphic" in2="effect1_dropShadow" result="shape"/>
</filter>
</defs>
</svg>
